# xmcd
#
# Track frame offsets:
#	150
#	21273
#	50917
#	68100
#	84926
#	110720
#	130221
#	146426
#	173061
#	196492
#	224874
#	245457
#	260136
#	273546
#
# Disc length: 3836 seconds
#
# Revision: 1
# Processed by: cddbd v1.5.2PL0 Copyright (c) Steve Scherf et al.
# Submitted via: audiograbber 1.83.01
#
DISCID=e10efa0e
DTITLE=Ella Fitzgerald and Louis Armstrong - They can`t take that away from me
DYEAR=1955
DGENRE=Jazz
TTITLE0=Ella Fitzgerald and Louis Armstrong - They can`t take that away from me
TTITLE1=Ella Fitzgerald and Louis Armstrong - April in Paris
TTITLE2=Ella Fitzgerald and Louis Armstrong - Cant we be friends
TTITLE3=Ella Fitzgerald and Louis Armstrong - Moonlight in Vermont
TTITLE4=Ella Fitzgerald and Louis Armstrong - The nearness of you
TTITLE5=Ella Fitzgerald and Louis Armstrong - Under a blanket of blue
TTITLE6=Ella Fitzgerald and Louis Armstrong - Stars fell on Alabama
TTITLE7=Ella Fitzgerald and Louis Armstrong - Cheek to cheek
TTITLE8=Ella Fitzgerald and Louis Armstrong - Tenderly
TTITLE9=Ella Fitzgerald and Louis Armstrong - Isn`t this a lovely day
TTITLE10=Ella Fitzgerald and Louis Armstrong - A foggy day
TTITLE11=Ella Fitzgerald and Louis Armstrong - The frim fram sauce
TTITLE12=Ella Fitzgerald and Louis Armstrong - You won`t be satisfied
TTITLE13=Ella Fitzgerald and Louis Armstrong - Dream a little dream of me
EXTD=
EXTT0=
EXTT1=
EXTT2=
EXTT3=
EXTT4=
EXTT5=
EXTT6=
EXTT7=
EXTT8=
EXTT9=
EXTT10=
EXTT11=
EXTT12=
EXTT13=
PLAYORDER=
